<svg xmlns="http://www.w3.org/2000/svg" width="30" viewBox="0 0 30 30" height="30" version="1.0"><defs><clipPath id="a"><path d="M 181 194 L 314 194 L 314 325.117188 L 181 325.117188 Z M 181 194"/></clipPath></defs><path fill="#FFF" d="M 61.359375 148.886719 C 61.324219 149.066406 61.28125 149.25 61.21875 149.433594 C 61.28125 149.25 61.324219 149.066406 61.359375 148.886719 Z M 61.390625 148.660156 C 61.390625 148.992188 61.433594 150.132812 61.832031 151.667969 C 62.65625 154.769531 64.78125 157.574219 67.6875 159.347656 L 181.441406 228.734375 C 181.261719 227.609375 181.175781 226.457031 181.175781 225.277344 C 181.175781 214.105469 186 206.394531 197.320312 199.476562 L 305.613281 133.394531 C 307.039062 132.527344 307.191406 131.078125 307.191406 130.496094 C 307.191406 129.917969 307.039062 128.476562 305.613281 127.597656 L 190.59375 57.402344 L 74.359375 128.335938 C 64.917969 134.09375 61.410156 139.507812 61.410156 148.292969 C 61.410156 148.414062 61.402344 148.542969 61.390625 148.660156 Z M 196.0625 243.320312 C 193.683594 243.320312 191.375 242.675781 189.253906 241.378906 C 188.824219 241.109375 188.40625 240.828125 188.007812 240.519531 L 64.492188 165.179688 C 60.09375 162.503906 56.972656 158.335938 55.683594 153.472656 C 55.050781 151.042969 54.921875 149.390625 55.027344 148.261719 C 55.039062 137.101562 59.867188 129.402344 71.175781 122.492188 L 188.996094 50.59375 C 189.980469 49.992188 191.195312 49.992188 192.179688 50.59375 L 308.800781 121.761719 C 311.792969 123.589844 313.574219 126.855469 313.574219 130.496094 C 313.574219 134.136719 311.792969 137.414062 308.800781 139.230469 L 200.515625 205.320312 C 191.066406 211.085938 187.558594 216.492188 187.558594 225.277344 C 187.558594 229.261719 189.113281 232.933594 191.601562 234.945312 C 191.65625 234.988281 191.71875 235.03125 191.773438 235.082031 C 191.988281 235.246094 192.210938 235.394531 192.4375 235.535156 C 194.96875 237.082031 197.972656 236.886719 201.117188 234.964844 L 310.644531 168.121094 L 301.75 162 C 300.28125 160.992188 299.863281 158.894531 300.820312 157.339844 C 301.785156 155.78125 303.757812 155.339844 305.238281 156.359375 L 318.476562 165.480469 C 319.410156 166.113281 319.957031 167.21875 319.925781 168.390625 C 319.890625 169.5625 319.292969 170.636719 318.324219 171.214844 L 204.3125 240.808594 C 201.566406 242.484375 198.765625 243.320312 196.0625 243.320312"/><path fill="#FFF" d="M 249.371094 285.78125 C 248.265625 285.78125 247.191406 285.179688 246.601562 284.09375 C 245.722656 282.484375 246.246094 280.421875 247.769531 279.488281 L 310.644531 241.121094 L 301.75 234.996094 C 300.28125 233.976562 299.863281 231.894531 300.820312 230.324219 C 301.785156 228.769531 303.757812 228.328125 305.238281 229.347656 L 318.476562 238.46875 C 319.410156 239.113281 319.957031 240.21875 319.925781 241.386719 C 319.890625 242.558594 319.292969 243.621094 318.324219 244.214844 L 250.957031 285.332031 C 250.453125 285.640625 249.90625 285.78125 249.371094 285.78125"/><path fill="#FFF" d="M 61.359375 221.882812 C 61.324219 222.066406 61.28125 222.246094 61.21875 222.417969 C 61.28125 222.246094 61.324219 222.066406 61.359375 221.882812 Z M 189.777344 314.074219 C 189.230469 314.074219 188.683594 313.925781 188.179688 313.625 L 64.492188 238.175781 C 60.09375 235.492188 56.972656 231.335938 55.683594 226.457031 C 55.050781 224.03125 54.921875 222.386719 55.027344 221.257812 C 55.039062 210.121094 59.847656 202.417969 71.097656 195.535156 L 76.460938 191.851562 C 77.941406 190.839844 79.917969 191.28125 80.882812 192.839844 C 81.835938 194.40625 81.417969 196.492188 79.9375 197.511719 L 74.511719 201.238281 C 74.457031 201.269531 74.414062 201.292969 74.359375 201.324219 C 64.917969 207.09375 61.410156 212.503906 61.410156 221.28125 C 61.410156 221.410156 61.402344 221.527344 61.390625 221.65625 C 61.390625 221.980469 61.433594 223.128906 61.832031 224.652344 C 62.65625 227.769531 64.78125 230.570312 67.6875 232.332031 L 191.375 307.78125 C 192.898438 308.714844 193.425781 310.777344 192.535156 312.386719 C 191.957031 313.472656 190.871094 314.074219 189.777344 314.074219"/><g clip-path="url(#a)"><path fill="#FFF" d="M 227.582031 325.117188 C 227.046875 325.117188 226.5 324.964844 226.015625 324.675781 C 225.019531 324.085938 224.394531 322.957031 224.394531 321.742188 L 224.394531 301.691406 L 204.292969 313.804688 C 199.152344 316.941406 193.800781 317.144531 189.253906 314.363281 C 184.273438 311.324219 181.175781 305.160156 181.175781 298.273438 C 181.175781 287.09375 186 279.378906 197.320312 272.472656 L 305.613281 206.382812 C 307.039062 205.511719 307.191406 204.074219 307.191406 203.492188 C 307.191406 202.902344 307.039062 201.464844 305.613281 200.59375 C 304.089844 199.660156 303.566406 197.597656 304.445312 195.984375 C 305.324219 194.375 307.277344 193.828125 308.800781 194.75 C 311.792969 196.578125 313.574219 199.839844 313.574219 203.492188 C 313.574219 207.136719 311.792969 210.398438 308.800781 212.226562 L 200.515625 278.316406 C 191.066406 284.074219 187.558594 289.488281 187.558594 298.273438 C 187.558594 302.6875 189.464844 306.714844 192.4375 308.53125 C 194.96875 310.078125 197.972656 309.886719 201.117188 307.960938 L 226.003906 292.96875 C 226.992188 292.367188 228.203125 292.378906 229.191406 292.980469 C 230.167969 293.578125 230.777344 294.695312 230.777344 295.890625 L 230.777344 315.804688 L 246.171875 306.050781 L 246.171875 282.410156 C 246.171875 277.738281 243.78125 273.386719 239.941406 271.066406 C 238.40625 270.144531 237.878906 268.082031 238.75 266.46875 C 239.617188 264.847656 241.570312 264.289062 243.09375 265.210938 C 248.929688 268.726562 252.554688 275.320312 252.554688 282.410156 L 252.554688 307.960938 C 252.554688 309.15625 251.964844 310.25 251 310.851562 L 229.222656 324.632812 C 228.71875 324.957031 228.148438 325.117188 227.582031 325.117188"/></g><path fill="#FFF" d="M 170.671875 186.199219 C 170.144531 186.199219 169.621094 186.0625 169.128906 185.769531 L 71.226562 128.359375 C 69.683594 127.457031 69.125 125.40625 69.984375 123.78125 C 70.832031 122.148438 72.773438 121.558594 74.316406 122.460938 L 172.214844 179.875 C 173.761719 180.777344 174.320312 182.828125 173.460938 184.460938 C 172.882812 185.566406 171.789062 186.199219 170.671875 186.199219"/><path fill="#D9D9D9" d="M 129.671875 106.253906 L 251.503906 106.253906 L 190.59375 69.078125 Z M 129.671875 106.253906"/></svg>